# xmcd CD database file
#
# Track frame offsets:
#	150
#	20021
#	40055
#	52602
#	67143
#	81567
#	96495
#	109742
#	126107
#	138737
#	153685
#
# Disc length: 2226 seconds
#
# Revision: 0
# Processed by: cddbd v1.5.2PL0 Copyright (c) Steve Scherf et al.
# Submitted via: CDex 1.51
#
DISCID=9e08b00b
DTITLE=Jimmy Sabater - el hijo de Teresa
DYEAR=2008
DGENRE=Salsa
TTITLE0=La Flauta
TTITLE1=Now That You´ve Gone (Ahora Que Te Has Ido)
TTITLE2=Por Primera Vez
TTITLE3=Kool It (Here Comes The Fuzz)
TTITLE4=La Peleona
TTITLE5=Dona Teresa
TTITLE6=Vida
TTITLE7=Wichita Lineman
TTITLE8=Yroco
TTITLE9=El Albanil
TTITLE10=Sufre Como Yo Sufri
EXTD=YEAR: 2008
EXTT0=
EXTT1=
EXTT2=
EXTT3=
EXTT4=
EXTT5=
EXTT6=
EXTT7=
EXTT8=
EXTT9=
EXTT10=
PLAYORDER=
